<svg xmlns="http://www.w3.org/2000/svg" width="1648" height="1648" viewBox="0 0 1648 1648" version="1.1"><path d="M 521.300 21.248 C 508.369 34.830, 495.087 62.879, 486.850 94 C 483.550 106.465, 482.692 108.200, 481.230 105.357 C 476.631 96.418, 475.196 69.609, 478.294 50.500 C 483.749 16.849, 455.165 79.265, 446.924 119 C 444.964 128.450, 443.616 131.701, 433.447 151.500 C 346.913 319.989, 348.013 484.371, 436.586 620.734 C 441.934 628.968, 441.934 628.968, 437.911 640.734 C 425.692 676.468, 414.769 689.039, 351 740.757 C 341.375 748.563, 329.191 758.673, 323.924 763.225 C 318.657 767.776, 308.857 775.945, 302.147 781.377 C 287.676 793.093, 271.228 808.506, 272.164 809.475 C 273.237 810.585, 275.467 808.986, 296.500 792.021 C 307.500 783.149, 324.341 769.727, 333.924 762.195 C 420.803 693.913, 427.845 686.832, 443.482 652.041 C 453.088 630.667, 453.072 630.861, 446.156 619.284 C 366.955 486.691, 366.775 312.831, 445.662 142.500 C 452.036 128.738, 453.484 124.537, 456.016 112.466 C 462.059 83.654, 471 63.921, 471 79.397 C 471 92.439, 478.203 128.278, 483.965 143.906 C 492.934 168.232, 508.333 187.946, 503.930 169.467 C 494.912 131.615, 496.590 99.146, 509.659 58.662 C 514.048 45.062, 514.442 45.529, 513.091 62.731 C 510.908 90.508, 511.737 142.014, 514.367 141.989 C 520.575 141.930, 523.075 127.774, 522.400 96.500 C 521.758 66.760, 522.785 38.241, 524.987 24.647 C 526.057 18.044, 525.148 17.207, 521.300 21.248 M 517.156 29.193 C 504.418 46.648, 497.273 63.319, 486.058 101.750 C 479.912 122.813, 472.441 88.875, 476.066 56.360 C 477.380 44.574, 477.128 44.281, 472.665 52.402 C 463.224 69.577, 454.122 94.440, 448.975 117.109 C 446.269 129.029, 445.165 131.699, 431.579 159.168 C 348.589 326.962, 351.030 486.715, 438.637 621.197 C 443.927 629.317, 443.911 628.125, 438.926 642.639 C 428.697 672.420, 416.503 688.303, 381.500 717.436 C 308.912 777.850, 292.890 791.283, 288.500 795.412 C 285.750 797.998, 296.142 790.075, 311.592 777.807 C 327.043 765.538, 350.854 746.725, 364.504 736 C 419.163 693.056, 432.271 677.989, 446.003 642.328 C 450.810 629.844, 450.868 630.502, 443.927 618.453 C 364.008 479.718, 365.770 296.260, 448.590 132.822 C 450.026 129.989, 452.221 122.383, 453.555 115.622 C 457.490 95.673, 459.449 89.544, 466.942 73.750 C 471.162 64.856, 471.585 65.143, 472.380 77.431 C 473.717 98.107, 480.569 131.168, 486.945 147.700 C 491.577 159.711, 504.924 180.334, 502.671 172 C 492.253 133.455, 494.697 96.382, 510.700 50.204 C 516.488 33.501, 517.121 34.263, 515.519 56 C 513.418 84.504, 513.027 139.719, 514.935 138.540 C 520.769 134.935, 522.129 126.985, 521.027 102.940 C 519.941 79.235, 520.794 47.827, 523.021 29.577 C 524.262 19.398, 524.302 19.401, 517.156 29.193 M 1108 28.804 C 1108 29.245, 1109.589 34.308, 1111.531 40.054 C 1126.291 83.728, 1128.490 126.048, 1118.036 165.244 C 1114.582 178.193, 1115.099 178.819, 1122.579 170.745 C 1141.022 150.838, 1153.160 120.427, 1155.608 87.992 C 1156.551 75.503, 1162.775 91.678, 1169.464 124 C 1174.233 147.046, 1181.959 169.164, 1194.789 196.500 C 1242.498 298.155, 1248.787 395.517, 1214.460 501 C 1204.044 533.006, 1201.628 539.046, 1181.255 584 C 1160.194 630.472, 1161.307 626.877, 1165.043 636.377 C 1177.286 667.511, 1197.806 693.864, 1230.500 720.442 C 1237.100 725.808, 1249.250 735.693, 1257.500 742.410 C 1265.750 749.127, 1276.100 757.373, 1280.500 760.736 C 1284.900 764.099, 1301.051 777.234, 1316.392 789.925 C 1342.428 811.465, 1348.618 815.892, 1346.087 811.163 C 1343.554 806.429, 1299.617 768.284, 1256.056 733 C 1208.552 694.522, 1188.931 672.279, 1176.447 642.751 C 1171.902 632.001, 1171.902 632.001, 1179.301 619.751 C 1261.294 483.992, 1270.699 337.946, 1205.887 206.896 C 1184.766 164.191, 1179.623 149.676, 1171.545 109.980 C 1163.559 70.739, 1157.254 49.154, 1149.130 33.250 C 1145.691 26.517, 1145.173 28.042, 1145.734 43.250 C 1146.476 63.336, 1143.147 93.804, 1139.050 104.413 C 1137.403 108.680, 1136.557 106.932, 1133.523 93 C 1127.483 65.256, 1108 16.253, 1108 28.804 M 1147.394 51.834 C 1147.222 80.743, 1142.008 110, 1137.028 110 C 1135.885 110, 1133.947 103.504, 1129.869 86 C 1125.712 68.159, 1113.964 34.702, 1112.404 36.263 C 1112.235 36.432, 1113.416 40.781, 1115.030 45.928 C 1127.640 86.149, 1129.393 127.030, 1120.062 163.265 C 1116.799 175.937, 1117.888 175.653, 1128.365 161.102 C 1143.513 140.064, 1152.329 114.179, 1154.602 84.071 C 1154.976 79.113, 1155.617 75.263, 1156.026 75.516 C 1158.327 76.938, 1166.639 103.491, 1171.474 124.866 C 1176.420 146.732, 1183.806 168.069, 1195.794 195.116 C 1241.512 298.263, 1249.423 376.919, 1223.941 474.941 C 1214.952 509.522, 1203.329 539.866, 1176.806 598 C 1161.549 631.441, 1162.126 626.976, 1170.640 645.716 C 1186.154 679.864, 1199.965 694.342, 1272.500 752.495 C 1289.550 766.164, 1309.800 782.594, 1317.500 789.005 C 1345.766 812.541, 1351.088 815.941, 1328.500 796.032 C 1316.061 785.068, 1315.414 784.521, 1267.500 744.476 C 1198.856 687.105, 1187.154 674.152, 1173.607 640.556 C 1170.025 631.674, 1170.025 631.674, 1179.638 615.668 C 1241.452 512.742, 1262.002 393.925, 1235.879 290.500 C 1229.346 264.638, 1217.654 234.685, 1199.037 196.126 C 1179.992 156.677, 1177.410 149.014, 1169.064 107.155 C 1162.390 73.684, 1159.635 63.032, 1153.896 48.500 C 1147.361 31.954, 1147.514 31.876, 1147.394 51.834 M 532.017 126.750 C 532.274 196.480, 616.790 339.405, 694.301 401.188 C 704.963 409.685, 704.756 409.617, 713.500 407.557 C 765.825 395.233, 865.649 395.238, 906.143 407.567 C 910.053 408.757, 950.416 373.720, 972.884 349.632 C 1037.708 280.134, 1080.194 208.372, 1092.500 147.594 C 1096.664 127.033, 1094.662 117.216, 1090.085 135.750 C 1080.874 173.050, 1063.149 211.513, 1037.666 249.500 C 1004.178 299.420, 910.694 398.564, 899 396.561 C 835.206 385.635, 748.002 386.074, 711.997 397.501 C 707.131 399.045, 664.448 355.425, 635.673 319.500 C 610.760 288.396, 611.919 289.936, 600.304 272.500 C 565.804 220.710, 546.019 176.235, 534.573 124.750 C 533.592 120.334, 531.998 121.581, 532.017 126.750 M 534.071 133 C 533.822 138.273, 540.159 164.411, 545.969 182.074 C 570.572 256.859, 635.783 352.424, 693.921 398.892 C 705.783 408.373, 703.460 407.954, 722.500 404.042 C 773.011 393.664, 839.209 393.466, 893.913 403.532 C 901.290 404.889, 907.454 406, 907.611 406 C 909.827 406, 940.154 379.800, 957.363 363.018 C 1029.743 292.435, 1083.764 202.228, 1092.415 137.500 C 1092.917 133.741, 1092.859 133.801, 1091.449 138.500 C 1073.074 199.714, 1050.840 239.664, 1003.577 296.390 C 971.814 334.512, 936.681 370.468, 907.393 394.825 C 902.423 398.958, 902.167 399.046, 897.893 398.098 C 848.815 387.217, 771.277 387.113, 719.136 397.858 C 708.368 400.077, 706.522 398.868, 680.466 372.523 C 608.801 300.062, 557.466 218, 537.513 144 C 535.659 137.125, 534.110 132.175, 534.071 133 M 520.956 150.603 C 510.245 175.590, 505.479 228.108, 509.067 281.595 C 511.207 313.490, 518.471 335.203, 548.008 398 C 570.635 446.105, 582.803 475.948, 591.592 504.891 C 595.736 518.542, 595.573 519.061, 589.887 510.303 C 587.474 506.586, 578.611 493.860, 570.190 482.023 C 525.889 419.744, 530.424 424.825, 531.321 438.479 C 533.245 467.765, 526.722 493.792, 502.314 554.227 C 487.556 590.767, 489.043 588.969, 482.662 578 C 445.136 513.495, 429.529 455.049, 429.522 379 C 429.516 318.130, 436.093 285.433, 459.451 230.199 C 464.605 218.013, 466.606 215.494, 462.530 226.325 C 432.998 304.783, 436.328 402.229, 472.001 503.500 C 476.092 515.116, 485.068 534.144, 486.267 533.744 C 488.639 532.954, 505.448 485.105, 507.513 473.263 C 509.169 463.767, 509.423 465.677, 502.421 435 C 490.239 381.627, 485.692 344.076, 485.589 296 C 485.518 262.581, 486.565 252.076, 494.189 209.759 C 495.311 203.532, 495.254 202.835, 493.452 200.629 C 478.763 182.652, 472.548 173.552, 469.771 165.952 C 468.415 162.243, 458.870 182.495, 442.180 224.500 C 390.878 353.607, 398.250 472.333, 464.690 587 C 467.399 591.675, 471.730 599.115, 474.316 603.533 C 479.018 611.566, 479.018 611.566, 472.654 626.533 C 441.348 700.158, 407.482 738.034, 323.250 793.622 C 304.381 806.074, 304.055 806.434, 310.250 807.992 C 328.299 812.530, 375.653 830.882, 383.500 836.380 C 387.500 839.183, 387.500 839.183, 356.250 838.736 C 317.419 838.180, 315.894 834.676, 370.250 870.888 C 395.137 887.467, 427.650 909.337, 442.500 919.486 C 494.567 955.072, 501.784 959.902, 518.077 970.067 C 527.109 975.703, 539 983.322, 544.500 986.998 C 550 990.674, 566.650 1001.259, 581.500 1010.520 C 596.350 1019.782, 612.779 1030.126, 618.008 1033.507 C 623.237 1036.889, 636.512 1044.957, 647.508 1051.437 C 658.504 1057.917, 672.225 1066.032, 678 1069.469 C 716.765 1092.546, 782.405 1123.172, 763.048 1109.150 C 747.581 1097.946, 729.154 1078.988, 718.098 1062.904 C 713.695 1056.500, 713.695 1056.500, 719.098 1061.604 C 752.711 1093.363, 781.507 1105.018, 823 1103.658 C 860.125 1102.442, 888.060 1090.970, 914.036 1066.271 C 923.890 1056.901, 924.194 1056.701, 921.999 1061.015 C 914.330 1076.096, 895.264 1096.054, 876.982 1108.141 C 873.392 1110.514, 875.323 1111.597, 879.740 1109.688 C 933.797 1086.322, 999.201 1051.712, 1077.500 1005.040 C 1119.153 980.212, 1173.496 941.846, 1223.554 901.927 C 1245.165 884.692, 1287.308 852.795, 1296.778 846.504 C 1307.333 839.493, 1307.580 839.568, 1272.012 839 C 1249.108 838.634, 1241.067 838.207, 1242.095 837.409 C 1252.169 829.584, 1285.643 817.149, 1309.250 812.463 C 1320.024 810.324, 1320.046 810.546, 1308.475 804.658 C 1240.472 770.057, 1183.443 712.395, 1152.908 647.363 C 1146.697 634.135, 1137 612.394, 1137 611.695 C 1137 611.416, 1143.917 597.211, 1152.372 580.130 C 1200.394 483.110, 1215.303 432.608, 1215.291 367 C 1215.281 307.757, 1201.951 256.841, 1166.675 181.296 C 1162.618 172.608, 1158.691 163.813, 1157.949 161.750 C 1156.171 156.813, 1155.862 156.939, 1152.081 164.151 C 1147.970 171.994, 1140.685 182.852, 1131.147 195.351 C 1123.631 205.202, 1123.631 205.202, 1124.817 214.851 C 1132.925 280.817, 1126.784 356.372, 1106.847 435.949 C 1097.472 473.372, 1096.754 465.221, 1113.270 508.924 C 1124.111 537.610, 1123.389 536.974, 1129.906 523.597 C 1178.527 423.795, 1188.194 325.719, 1158.647 232 C 1155.612 222.375, 1152.856 213.600, 1152.521 212.500 C 1150.821 206.910, 1160.769 229.244, 1164.993 240.500 C 1203.482 343.071, 1193.593 461.375, 1137.953 564 C 1123.662 590.359, 1125.641 588.504, 1121.466 579.453 C 1088.702 508.418, 1079.286 471.937, 1083.695 433.116 C 1084.501 426.020, 1083.580 426.496, 1075.812 437.185 C 1072.340 441.961, 1063.601 453.886, 1056.392 463.685 C 1049.182 473.483, 1037.731 489.558, 1030.944 499.407 C 1024.157 509.255, 1018.458 516.874, 1018.279 516.338 C 1017.405 513.714, 1028.349 486.775, 1042.879 455.785 C 1107.219 318.564, 1117.266 290.228, 1117.262 246 C 1117.261 225.746, 1116.395 218.538, 1109.995 185.500 C 1107.864 174.500, 1105.808 163.025, 1105.426 160 C 1103.868 147.655, 1101.718 148.584, 1100.037 162.328 C 1093.668 214.420, 1062.054 284.167, 1014.972 350 C 970.464 412.233, 958.803 444.948, 967.959 481.897 C 969.104 486.515, 969.845 490.488, 969.608 490.726 C 969.013 491.321, 955.944 475.501, 944.836 460.740 C 937 450.326, 925.333 435.691, 917.415 426.342 C 914.193 422.538, 890.165 417.186, 859 413.330 C 840.822 411.080, 778.069 410.733, 760.500 412.784 C 718.711 417.664, 702.161 421.798, 697.536 428.512 C 695.561 431.380, 691.370 436.896, 688.223 440.770 C 685.075 444.644, 674.476 457.794, 664.668 469.992 C 654.861 482.190, 646.641 491.974, 646.401 491.735 C 646.162 491.495, 646.931 487.295, 648.109 482.400 C 653.548 459.810, 649.293 434.362, 635.085 404.500 C 629.071 391.863, 624.597 383.989, 609.512 359.500 C 554.155 269.634, 525.331 200.267, 524.642 155.252 C 524.482 144.838, 523.797 143.974, 520.956 150.603 M 520.756 156 C 510.193 189.607, 507.434 225.660, 511.074 282.500 C 513.140 314.757, 518.743 331.530, 548.989 396 C 571.793 444.606, 588.051 484.996, 595.607 511.811 C 600.736 530.015, 600.406 529.883, 586.053 508 C 576.610 493.603, 574.348 490.343, 558.653 468.500 C 553.120 460.800, 545.084 449.596, 540.796 443.603 C 533 432.707, 533 432.707, 532.980 444.603 C 532.927 477.358, 519.479 523.061, 492.186 583.250 C 488.375 591.655, 489.543 592.287, 480.483 576.908 C 416.167 467.721, 409.246 336.464, 461.719 221 C 465.843 211.925, 470.804 200.900, 472.744 196.500 C 474.683 192.100, 476.829 187.825, 477.511 187 C 478.535 185.763, 477.858 183.941, 473.647 176.600 C 467.863 166.516, 469.092 164.937, 452.314 204 C 390.746 347.341, 395.878 463.566, 469.443 591.919 C 481.936 613.717, 481.534 609.991, 473.448 629.054 C 443.378 699.947, 403.495 744.083, 322.412 796.198 C 306.779 806.246, 306.974 805.781, 317.150 808.719 C 350.672 818.397, 391 835.604, 391 840.229 C 391 841.009, 381.990 841.142, 359.500 840.696 C 342.175 840.352, 328 840.294, 328 840.567 C 328 840.839, 345.212 852.469, 366.250 866.411 C 387.288 880.353, 415.525 899.320, 429 908.561 C 462.737 931.695, 510.671 963.766, 527.500 974.462 C 535.200 979.355, 553.875 991.225, 569 1000.838 C 662.438 1060.224, 715.934 1090.926, 752 1105.866 C 759.500 1108.973, 759.500 1108.973, 755 1105.321 C 746.582 1098.488, 729.527 1080.399, 720.500 1068.730 C 704.902 1048.564, 701.329 1038.830, 715.500 1055.107 C 771.699 1119.657, 872.570 1118.390, 925.020 1052.474 C 927.854 1048.914, 930.624 1046, 931.175 1046 C 932.288 1046, 923.427 1063.065, 918.892 1069.657 C 917.301 1071.969, 916 1074.083, 916 1074.354 C 916 1076.120, 1035.358 999.052, 1066.364 977.265 C 1187.426 892.202, 1226.188 838.288, 1209.557 778.103 C 1206.398 766.672, 1205.829 767.204, 1217.151 770.997 C 1235.075 777.002, 1249.847 787.624, 1250.101 794.690 C 1250.447 804.290, 1248.091 814.078, 1242.120 827.845 C 1239.936 832.880, 1238.362 837, 1238.621 837 C 1238.881 837, 1242.560 835.009, 1246.797 832.575 C 1260.076 824.948, 1284.395 816.269, 1303 812.518 C 1307.125 811.687, 1311.603 810.748, 1312.952 810.433 C 1315.003 809.954, 1313.263 808.747, 1302.297 803.043 C 1229.394 765.123, 1179.172 709.931, 1141.141 625.938 C 1133.683 609.468, 1133.299 613.726, 1144.115 592.981 C 1168.759 545.715, 1185.914 504.756, 1192.899 476.500 C 1214.809 387.876, 1209.667 317.524, 1174.811 229 C 1168.633 213.310, 1150.746 172.001, 1150.137 172.017 C 1148.241 172.067, 1140.136 186.497, 1141.557 187.292 C 1144.948 189.190, 1162.526 228.162, 1170.820 252.174 C 1206.398 355.168, 1192.308 472.896, 1131.706 579 C 1124.147 592.235, 1123.714 591.612, 1100.818 534.500 C 1084.236 493.138, 1081.514 481.774, 1081.506 453.893 C 1081.499 429.746, 1084.217 428.572, 1058.091 464 C 1042.004 485.815, 1026.785 507.602, 1019.521 519.215 C 1002.357 546.656, 1017.109 507.692, 1055.002 425.500 C 1121.024 282.293, 1124.137 268.538, 1108.860 187.500 C 1102.656 154.585, 1103.016 155.629, 1101.442 166.006 C 1093.637 217.484, 1063.836 283.071, 1019.431 346.500 C 966.964 421.444, 959.157 445.648, 972.578 491.750 C 973.724 495.687, 970.815 494.336, 963.965 487.750 C 901.732 427.921, 790.873 407.111, 706.304 439.384 C 684.196 447.821, 684.560 447.518, 660.540 477.500 C 644.537 497.476, 642.455 498.547, 646.090 484.931 C 654.902 451.931, 645.904 422.427, 607.988 360 C 551.063 266.275, 527.882 211.296, 523.239 159 C 522.485 150.500, 522.485 150.500, 520.756 156 M 1026.539 631.112 C 979.887 637.909, 937.460 697.410, 923.972 774.957 C 919.435 801.041, 920.126 812.600, 925.815 805.781 C 995.470 722.284, 1070.404 704.017, 1148.972 751.384 C 1162.957 759.814, 1155.600 751.398, 1139.500 740.546 C 1082.592 702.191, 1006.155 700.164, 959.666 735.779 C 955.725 738.799, 951.843 741.771, 951.040 742.385 C 949.045 743.908, 953.748 735.774, 962.747 722.136 C 999.146 666.977, 1061.628 645.364, 1114.256 669.730 C 1124.084 674.280, 1125.072 673.277, 1117.613 666.321 C 1088.064 638.766, 1056.846 626.697, 1026.539 631.112 M 579.164 632.052 C 559.254 635.619, 532.999 650.034, 514.500 667.556 C 507.109 674.557, 508.365 675.477, 518.821 670.720 C 573.957 645.634, 640.849 672.026, 676.671 733 C 685.048 747.259, 684.945 746.998, 680.915 743.733 C 639.369 710.075, 590.924 702.955, 534.500 722.213 C 516.195 728.461, 497.965 738.696, 486.535 749.142 C 480.141 754.985, 480.541 756.784, 487.215 752.203 C 554.431 706.067, 643.902 726.580, 703.500 801.792 C 714.724 815.957, 715.504 815.328, 712.541 794.500 C 698.094 692.965, 639.245 621.290, 579.164 632.052 M 579.869 633.539 C 561.602 636.385, 536.941 649.291, 520 664.870 C 514.500 669.928, 514.500 669.928, 522.698 666.994 C 583.155 645.353, 645.646 673.528, 681.866 738.758 C 689.481 752.472, 689.015 752.957, 677.488 743.324 C 631.034 704.504, 557.295 702.975, 501.770 739.679 C 493.120 745.396, 492.194 746.940, 499.682 743.160 C 570.956 707.181, 649.794 730.074, 706.901 803.331 C 712.287 810.240, 712.590 809.786, 711.032 797.163 C 704.250 742.205, 674.951 678.212, 645.192 653.360 C 624.129 635.769, 604.256 629.739, 579.869 633.539 M 1021.500 633.424 C 982.802 642.335, 950.398 684.148, 931.543 749.500 C 925.639 769.964, 920.483 808.879, 924.190 805 C 924.979 804.175, 929.635 798.825, 934.537 793.112 C 991.693 726.496, 1057.673 708.608, 1130.750 739.918 C 1136.938 742.569, 1142 744.607, 1142 744.446 C 1142 741.977, 1112.308 726.528, 1097.973 721.539 C 1045.786 703.374, 993.485 710.512, 955.703 740.956 C 945.781 748.950, 945.451 748.382, 952.571 735.585 C 988.174 671.592, 1048.124 644.363, 1107.879 665.042 C 1118.044 668.560, 1117.567 667.653, 1103.516 656.757 C 1076.150 635.535, 1047.602 627.413, 1021.500 633.424 M 411.548 755.742 C 396.041 780.430, 388.181 803.239, 390.969 815.455 C 399.995 854.995, 450.848 906.711, 548 975.152 C 611.365 1019.791, 738.893 1100.688, 746.340 1100.968 C 750.539 1101.126, 732.727 1087.907, 694.500 1062.495 C 495.589 930.263, 425.345 853.195, 417.332 758.399 C 416.533 748.950, 415.975 748.693, 411.548 755.742 M 1232.731 847.979 C 1198.752 911.186, 1152.881 945.759, 935.500 1072.003 C 887.271 1100.013, 870.522 1112.672, 898.631 1099.869 C 958.254 1072.713, 1060.874 1015.399, 1119.500 976.511 C 1154.122 953.545, 1169.511 942.154, 1235 891.012 C 1258.309 872.810, 1276.776 858.906, 1292.857 847.452 C 1301.214 841.500, 1301.214 841.500, 1270.357 841 C 1253.386 840.725, 1239.042 840.201, 1238.483 839.835 C 1237.906 839.457, 1235.421 842.975, 1232.731 847.979 M 786.742 840.987 C 749.111 843.946, 728 851.344, 728 861.570 C 728 876.304, 772.480 914.127, 801.344 923.938 C 806.438 925.670, 806.438 925.670, 801.969 928.928 C 757.468 961.369, 662.484 929.224, 643.988 875.465 C 641.680 868.757, 642.113 868.042, 648.500 868.012 C 653.892 867.987, 670.271 865.089, 671.427 863.955 C 677.198 858.297, 628.939 854.372, 607.842 858.783 C 586.925 863.157, 587.759 866.145, 610.353 867.784 C 620.233 868.500, 620.233 868.500, 622.115 875.923 C 626.318 892.498, 637.273 908.349, 654.500 922.783 C 660 927.391, 664.677 931.687, 664.894 932.331 C 665.976 935.547, 683.352 969.506, 687.400 976.317 C 774.885 1123.527, 895.314 1109.345, 970.845 942.938 C 974.230 935.479, 977 929.004, 977 928.550 C 977 928.095, 981.839 922.722, 987.753 916.611 C 1004.150 899.668, 1013.894 882.946, 1014.329 871.003 C 1014.500 866.314, 1014.500 866.314, 1027 865.163 C 1045.233 863.484, 1047.894 862.228, 1039.444 859.292 C 1022.215 853.307, 986.263 853.784, 968.250 860.237 C 961.055 862.815, 964.697 864.940, 977.500 865.636 C 993.025 866.479, 992.892 866.305, 988 879.304 C 970.092 926.891, 888.004 955.713, 838.084 931.940 C 828.982 927.606, 828.822 926.913, 836.500 925.075 C 870.124 917.025, 919.329 866.728, 905.750 854.287 C 894.176 843.683, 835.640 837.141, 786.742 840.987 M 784.500 842.649 C 782.850 842.842, 777.225 843.475, 772 844.058 C 751.615 846.329, 733.982 852.046, 730.373 857.553 C 723.093 868.664, 764.269 907.243, 797.722 920.653 C 810.633 925.829, 810.384 926.937, 794.500 934.978 C 745.711 959.675, 658.604 925.759, 642.202 875.680 C 639.465 867.325, 639.397 867.436, 647.722 866.607 C 669.710 864.417, 671.289 862.586, 653.833 859.520 C 642.692 857.563, 617.993 857.829, 609 860.003 C 599.401 862.323, 597 863.107, 597 863.922 C 597 864.724, 599.773 865.101, 616.771 866.615 C 624.041 867.262, 624.041 867.262, 623.454 870.394 C 621.281 881.976, 637.246 906.554, 658.292 924.030 C 665.846 930.302, 666.263 930.883, 671.912 943 C 755.316 1121.893, 889.728 1120.353, 970.499 939.578 C 976.913 925.224, 977.449 924.391, 984.583 917.729 C 1000.916 902.476, 1013 881.505, 1013 868.414 C 1013 864.424, 1013.079 864.396, 1027.476 863.481 C 1039.142 862.739, 1041.934 861.764, 1036.899 860.192 C 1019.370 854.720, 987.782 855.245, 970.517 861.294 C 965.655 862.998, 967.547 863.510, 982.781 864.617 C 993.705 865.411, 993.559 865.269, 991.550 873.112 C 978.122 925.525, 890.924 958.850, 836.166 932.497 C 825.222 927.230, 825.031 926.179, 834.582 923.753 C 870.601 914.603, 918.259 866.427, 903.405 854.182 C 892.277 845.010, 822.394 838.232, 784.500 842.649 M 776.500 856.088 C 740.196 859.819, 731.382 869.723, 765.500 868.448 C 826.913 866.154, 867.855 862.500, 863.350 859.716 C 857.911 856.355, 798.184 853.860, 776.500 856.088 M 781.402 857.013 C 751.984 859.882, 735.462 866.744, 757.500 866.939 C 784.799 867.182, 862.800 861.541, 855 859.889 C 842.793 857.303, 796.841 855.507, 781.402 857.013 M 943.057 943.530 C 910.021 960.877, 854.942 963.392, 824.105 948.962 C 817.551 945.895, 817.551 945.895, 809.956 949.459 C 783.118 962.054, 740.225 962.057, 705.434 949.468 C 687.928 943.134, 688.400 942.338, 698.348 961.412 C 771.344 1101.357, 888.400 1096.360, 948.390 950.738 C 953.555 938.203, 953.456 938.069, 943.057 943.530 M 942.500 945.569 C 905.840 962.689, 859.947 964.973, 825.756 951.380 C 817.011 947.904, 817.011 947.904, 809.380 951.525 C 782.201 964.422, 741.189 964.055, 703.500 950.577 C 698 948.610, 693.381 947, 693.237 947 C 689.898 946.997, 716.492 990.979, 730.356 1008.392 C 801.073 1097.208, 895.011 1072.936, 946.009 952.672 C 950.959 940.998, 951.208 941.502, 942.500 945.569 M 523.690 996.747 C 523.261 997.497, 528.424 1028.078, 531.616 1043.700 C 533.292 1051.901, 533.292 1051.901, 540.344 1056.590 C 553.075 1065.055, 576.885 1089.890, 592.292 1110.772 C 595.706 1115.400, 599.249 1120.157, 600.164 1121.343 C 603.242 1125.333, 603.156 1122.257, 599.984 1114.851 C 592.295 1096.900, 582.354 1064, 584.618 1064 C 584.816 1064, 586.766 1067.556, 588.951 1071.902 C 593.275 1080.503, 602.050 1095.289, 607.999 1104 C 610.065 1107.025, 613.764 1112.650, 616.219 1116.500 C 630.277 1138.540, 664.108 1174.789, 683.904 1189.020 C 689.626 1193.134, 696.707 1198.412, 699.640 1200.750 C 704.972 1205, 704.972 1205, 739.069 1205 C 776.510 1205, 777.837 1204.738, 764.693 1199.946 C 730.825 1187.599, 687.758 1153.802, 637.969 1100.500 C 590.630 1049.822, 526.591 991.681, 523.690 996.747 M 1111 1003.156 C 1078.780 1024.891, 1048.224 1054.124, 1003.500 1105.999 C 956.137 1160.934, 924.518 1185.343, 882.551 1199.368 C 865.862 1204.945, 866.268 1205, 924.356 1205 C 984.329 1205, 975.905 1207.141, 997.034 1186.528 C 1026.151 1158.121, 1064.644 1094.486, 1087.956 1036.218 C 1091.312 1027.830, 1087.330 1053.261, 1082.992 1067.920 C 1080.142 1077.553, 1080.770 1077.207, 1097.936 1059.699 C 1106.670 1050.789, 1115.612 1042.155, 1117.805 1040.511 C 1122.218 1037.203, 1122.522 1035.337, 1123.236 1007.083 C 1123.560 994.292, 1123.952 994.418, 1111 1003.156 M 1108.894 1006.640 C 1074.138 1031, 1047.820 1056.720, 996.993 1116 C 959.863 1159.304, 927.460 1183.910, 887.539 1199.114 C 877.500 1202.938, 877.500 1202.938, 926.908 1202.969 C 983.724 1203.005, 977.269 1204.768, 997.754 1183.621 C 1027.117 1153.310, 1053.943 1109.207, 1082.463 1044.350 C 1090.177 1026.807, 1092.005 1024.183, 1091.993 1030.667 C 1091.985 1034.364, 1085.992 1065.416, 1084.497 1069.500 C 1084.095 1070.600, 1088.028 1067, 1093.237 1061.500 C 1098.447 1056, 1106.753 1048.016, 1111.696 1043.757 C 1119.578 1036.966, 1126.885 1003.551, 1121.635 998.302 C 1121.444 998.111, 1115.710 1001.863, 1108.894 1006.640 M 525.477 1001.250 C 525.760 1002.487, 527.345 1011.469, 528.998 1021.210 C 532.733 1043.212, 534.612 1051.371, 536.055 1051.852 C 544.762 1054.754, 576.264 1086.755, 595.765 1112.509 C 597.956 1115.403, 597.944 1115.272, 595.396 1108.500 C 590.383 1095.175, 586.164 1081.452, 583.712 1070.500 C 579.867 1053.325, 580.989 1053.720, 591.565 1073.267 C 620.156 1126.105, 653.470 1165.687, 693.372 1194.231 C 698.943 1198.216, 703.650 1201.819, 703.833 1202.238 C 704.017 1202.657, 718.417 1202.996, 735.833 1202.991 C 767.500 1202.982, 767.500 1202.982, 756.500 1198.149 C 723.262 1183.546, 699.468 1164.832, 649.540 1114.023 C 575.922 1039.109, 560.639 1024.585, 536.158 1006.278 C 525.542 998.339, 524.722 997.953, 525.477 1001.250 M 1141.024 1040.603 C 1131.704 1043.108, 1124.088 1048.198, 1110.531 1060.984 C 1089.135 1081.163, 1075.487 1098.817, 1020.457 1177.500 C 1013.524 1187.414, 1005 1201.697, 1005 1203.402 C 1005 1205.881, 1136.047 1205.844, 1138.128 1203.364 C 1138.882 1202.464, 1144.077 1192.677, 1149.672 1181.614 C 1161.069 1159.077, 1160.638 1158.810, 1156.401 1185.794 C 1155.081 1194.205, 1154 1201.968, 1154 1203.044 C 1154 1205.590, 1268.606 1206.189, 1269.582 1203.648 C 1271.388 1198.941, 1239.393 1128.695, 1223.513 1102.500 C 1201.696 1066.514, 1176.907 1044.065, 1154.566 1040.063 C 1147.436 1038.786, 1147.848 1038.769, 1141.024 1040.603 M 1139.366 1042.840 C 1122.844 1048.550, 1098.300 1072.295, 1071.494 1108.500 C 1045.356 1143.803, 1007.027 1199.524, 1007.006 1202.250 C 1007.003 1202.662, 1036.194 1203, 1071.876 1203 C 1143.111 1203, 1136.314 1206.024, 1156.097 1165.536 C 1157.969 1161.705, 1160.084 1158.398, 1160.798 1158.187 C 1162.281 1157.747, 1162.256 1157.991, 1158.117 1185 C 1155.435 1202.500, 1155.435 1202.500, 1211.376 1202.758 C 1276.705 1203.060, 1269.360 1204.889, 1263.473 1189.786 C 1223.204 1086.488, 1175.726 1030.273, 1139.366 1042.840 M 499.219 1058.172 C 476.574 1063.239, 444.280 1116.310, 421.569 1185.780 C 418.462 1195.285, 416.189 1203.497, 416.519 1204.030 C 417.609 1205.794, 531.947 1205.303, 532.626 1203.531 C 532.936 1202.724, 531.670 1195.974, 529.811 1188.531 C 527.953 1181.089, 526.552 1175, 526.699 1175 C 526.845 1175, 531.007 1181.188, 535.948 1188.750 C 540.889 1196.313, 545.415 1203.063, 546.005 1203.750 C 547.481 1205.468, 648 1205.588, 648 1203.872 C 648 1201.458, 632.490 1179.460, 596.974 1131.500 C 552.711 1071.729, 526.500 1052.068, 499.219 1058.172 M 497.218 1060.408 C 473.981 1068.006, 440.617 1127.522, 418.543 1200.750 C 417.865 1203, 417.865 1203, 474.433 1203 C 529.919 1203, 531 1202.963, 531 1201.043 C 531 1199.967, 529.420 1192.922, 527.489 1185.387 C 522.581 1166.237, 522.948 1166.318, 536.985 1187.500 C 541.359 1194.100, 545.514 1200.300, 546.219 1201.278 C 547.422 1202.947, 550.520 1203.039, 596.839 1202.778 C 650.627 1202.475, 649.287 1205.021, 618.039 1162.500 C 550.441 1070.516, 526.966 1050.679, 497.218 1060.408 M 989.554 1071.654 C 862.637 1158.023, 784.126 1157.932, 652.264 1071.265 C 622.536 1051.726, 700.296 1124.861, 737.818 1151.730 C 803.308 1198.627, 855.469 1195.278, 926.329 1139.625 C 942.752 1126.727, 970.367 1100.615, 988.064 1081.252 C 1006.410 1061.177, 1006.583 1060.065, 989.554 1071.654 M 987.120 1075.133 C 863.973 1159.357, 782.981 1158.903, 652.266 1073.255 C 642.720 1067, 701.077 1121.347, 721.413 1137.650 C 807.068 1206.320, 867.632 1197.789, 963.865 1103.500 C 979.968 1087.723, 998.894 1067.968, 997.858 1068.017 C 997.661 1068.027, 992.829 1071.229, 987.120 1075.133 M 1251 1140.511 C 1251 1140.792, 1254.889 1148.780, 1259.643 1158.261 C 1264.397 1167.742, 1270.909 1182.025, 1274.115 1190 C 1279.406 1203.164, 1280.187 1204.530, 1282.593 1204.828 C 1287.211 1205.400, 1287.344 1203.816, 1283.513 1193.884 C 1275.244 1172.444, 1251 1132.646, 1251 1140.511 M 305.182 1216.597 C 291.820 1223.255, 291.848 1225.275, 306.166 1288 C 309.996 1304.775, 315.996 1331.325, 319.500 1347 C 323.004 1362.675, 329.076 1389.450, 332.994 1406.500 C 336.911 1423.550, 341.917 1445.375, 344.117 1455 C 346.317 1464.625, 350.090 1480.375, 352.502 1490 C 354.914 1499.625, 359.418 1518.525, 362.511 1532 C 377.373 1596.739, 379.532 1603.634, 387.074 1610.448 C 395.089 1617.689, 398.062 1617.454, 395.200 1609.806 C 394.103 1606.873, 390.884 1593.905, 388.047 1580.987 C 378.104 1535.713, 374.811 1521.177, 365.512 1481.500 C 360.356 1459.500, 352.917 1426.200, 348.982 1407.500 C 345.046 1388.800, 337.787 1354.825, 332.851 1332 C 311.584 1233.673, 312.298 1242.735, 325.348 1236.831 C 334.279 1232.790, 1365.691 1233.234, 1369.727 1237.280 C 1374.475 1242.040, 1372.980 1267.878, 1364.939 1320 C 1359.825 1353.153, 1359.832 1362.275, 1364.953 1338.500 C 1367.388 1327.197, 1372.670 1304.370, 1379.982 1273.561 C 1390.511 1229.196, 1390.083 1222.031, 1376.541 1215.880 C 1368.868 1212.394, 312.196 1213.101, 305.182 1216.597 M 306.502 1217.574 C 297.554 1222.244, 295.248 1228.920, 297.892 1242.500 C 307.086 1289.710, 377.202 1590.367, 381.313 1600.206 C 385.542 1610.328, 395.736 1617.037, 392.863 1607.808 C 391.815 1604.440, 387.164 1584.768, 382.528 1564.092 C 377.892 1543.416, 371.588 1515.475, 368.518 1502 C 357.390 1453.154, 354.027 1438.205, 350.519 1422 C 348.554 1412.925, 344.497 1394.250, 341.504 1380.500 C 324.577 1302.755, 314 1251.789, 314.004 1248 C 314.014 1240.078, 323.246 1234.423, 338.630 1232.915 C 359.228 1230.895, 1363.986 1232.219, 1367.741 1234.271 C 1375.932 1238.747, 1375.968 1255.389, 1367.906 1310.354 C 1366.063 1322.919, 1365.753 1330.544, 1367.461 1321.297 C 1367.847 1319.208, 1370.853 1305.800, 1374.142 1291.500 C 1388.339 1229.769, 1388.595 1225.840, 1378.867 1218.901 C 1374.514 1215.797, 312.425 1214.482, 306.502 1217.574 M 1041.500 1265.067 C 602.553 1267.473, 404.122 1269.449, 402.137 1271.435 C 400.169 1273.403, 401.447 1277.619, 404.239 1278.367 C 408.972 1279.635, 1283.528 1279.072, 1284.800 1277.800 C 1286.247 1276.353, 1286.378 1270.575, 1285.021 1268.039 C 1282.574 1263.466, 1298.376 1263.659, 1041.500 1265.067 M 1062.500 1266.682 C 417.052 1270.448, 403 1270.612, 403 1274.402 C 403 1277.819, 1279.527 1280.298, 1283.630 1276.892 C 1285.431 1275.397, 1285.324 1271.013, 1283.425 1268.500 C 1281.869 1266.441, 1208.002 1265.833, 1062.500 1266.682 M 298.915 1446.751 C 255.430 1490.982, 239.742 1510.649, 228.941 1534.471 C 224.880 1543.427, 220.467 1542.795, 281 1541.926 C 310.425 1541.504, 338.663 1541.122, 343.750 1541.079 C 352.494 1541.004, 353 1540.884, 353 1538.872 C 353 1537.161, 344.013 1497.480, 342.556 1492.759 C 342.342 1492.067, 341.896 1490.263, 341.564 1488.750 C 340.602 1484.357, 325.550 1491.226, 293.950 1510.477 C 288.889 1513.560, 284.575 1515.908, 284.362 1515.695 C 283.263 1514.596, 310.928 1491.237, 325.750 1480.749 C 339.125 1471.284, 338.508 1474.974, 331.642 1445.500 C 324.995 1416.969, 328.319 1416.842, 298.915 1446.751 M 307.932 1439.726 C 258.123 1490.155, 228.105 1527.925, 228.006 1540.293 C 228.001 1540.962, 350.956 1540.170, 351.785 1539.495 C 352.053 1539.278, 341.998 1496.996, 340.134 1490.500 C 339.661 1488.850, 338.801 1487.600, 338.223 1487.721 C 336.086 1488.171, 307.524 1504.255, 293.363 1512.984 C 277.315 1522.874, 278 1522.529, 278 1520.727 C 278 1517.753, 299.390 1498.587, 319.500 1483.540 C 326.650 1478.191, 333.230 1473.234, 334.122 1472.526 C 335.813 1471.184, 335.486 1469.429, 326.338 1430.726 C 324.500 1422.951, 324.500 1422.951, 307.932 1439.726 M 1355.092 1446.750 C 1351.543 1460.261, 1348 1475.132, 1348 1476.520 C 1348 1477.420, 1351.590 1481.533, 1355.977 1485.661 C 1375.219 1503.762, 1383.512 1520.637, 1382.845 1540.331 C 1382.466 1551.512, 1384.256 1552.342, 1404.750 1550.486 C 1422.139 1548.911, 1409.631 1505.965, 1381.274 1469.880 C 1361.174 1444.303, 1356.759 1440.402, 1355.092 1446.750 M 1353.383 1460.628 C 1349.350 1477.117, 1349.350 1477.117, 1357.270 1484.809 C 1376.842 1503.815, 1385.634 1521.629, 1384.846 1540.678 C 1384.500 1549.055, 1384.500 1549.055, 1397.500 1548.777 C 1412.104 1548.466, 1414.035 1544.440, 1409.047 1524.713 C 1404.193 1505.518, 1370.229 1452.058, 1358.142 1444.588 C 1357.743 1444.341, 1355.602 1451.560, 1353.383 1460.628 M 1427 1555.211 C 1409.676 1556.916, 1412.078 1559.571, 1431.745 1560.454 C 1462.313 1561.828, 1469.472 1567.384, 1469.492 1589.750 C 1469.500 1599.463, 1469.962 1600.514, 1472.509 1596.627 C 1478.434 1587.584, 1474.610 1562.558, 1466.304 1556.025 C 1463.386 1553.729, 1445.762 1553.364, 1427 1555.211 M 201.683 1560.973 C 191.879 1569.582, 188.550 1592.577, 195.564 1603.250 C 199.793 1609.684, 201.986 1608.396, 199.394 1601 C 196.505 1592.757, 199.563 1579.235, 205.804 1572.658 C 211.390 1566.771, 217.663 1564.764, 236 1562.996 C 250.263 1561.621, 251.497 1561.304, 249.930 1559.416 C 247.234 1556.167, 205.628 1557.510, 201.683 1560.973 M 1329.880 1581.074 C 1319.903 1587.240, 1329.608 1592.486, 1350.500 1592.220 C 1424.531 1591.278, 1462.256 1588.922, 1458.790 1585.456 C 1456.206 1582.873, 1333.708 1578.708, 1329.880 1581.074 M 240.009 1582.090 C 217.089 1584.295, 197.983 1591.629, 210.640 1593.364 C 228.772 1595.849, 366 1593.893, 366 1591.149 C 366 1582.492, 365.760 1582.379, 345.796 1581.656 C 321.530 1580.777, 250.629 1581.068, 240.009 1582.090 M 247.500 1582.933 C 228.033 1584.476, 208.548 1588.949, 210.928 1591.328 C 211.978 1592.377, 363.693 1592.852, 364.436 1591.808 C 368.970 1585.440, 362.394 1583, 340.691 1582.998 C 328.486 1582.997, 304.775 1582.804, 288 1582.568 C 271.225 1582.333, 253 1582.497, 247.500 1582.933 M 1330 1584.758 C 1330 1586.451, 1329.705 1588.605, 1329.344 1589.545 C 1328.631 1591.404, 1344.085 1591.294, 1412 1588.955 C 1462.043 1587.232, 1466.563 1586.027, 1430.500 1584.025 C 1378.109 1581.117, 1330 1581.467, 1330 1584.758 M 330.941 1618.353 C 330.698 1618.575, 265.250 1619.085, 185.500 1619.487 C 105.750 1619.889, 38.700 1620.541, 36.500 1620.937 C 27.633 1622.531, 55.834 1622.960, 194.500 1623.340 C 273.150 1623.556, 329.625 1623.397, 320 1622.988 C 310.375 1622.579, 265.600 1622.103, 220.500 1621.931 C 145.874 1621.646, 142.097 1621.557, 178.500 1620.945 C 200.500 1620.574, 247.488 1620.211, 282.917 1620.136 C 318.346 1620.061, 347.146 1619.836, 346.917 1619.635 C 346.286 1619.082, 331.447 1617.892, 330.941 1618.353 M 1316.750 1620.494 C 1315.237 1621.358, 1314 1622.569, 1314 1623.186 C 1314 1624.519, 1607.961 1623.396, 1609.325 1622.058 C 1612.052 1619.385, 1321.416 1617.831, 1316.750 1620.494" stroke="none" fill="#bec6c8" fill-rule="evenodd"/><path d="M 517.156 29.193 C 504.418 46.648, 497.273 63.319, 486.058 101.750 C 479.912 122.813, 472.441 88.875, 476.066 56.360 C 477.380 44.574, 477.128 44.281, 472.665 52.402 C 463.224 69.577, 454.122 94.440, 448.975 117.109 C 446.269 129.029, 445.165 131.699, 431.579 159.168 C 348.589 326.962, 351.030 486.715, 438.637 621.197 C 443.927 629.317, 443.911 628.125, 438.926 642.639 C 428.697 672.420, 416.503 688.303, 381.500 717.436 C 308.912 777.850, 292.890 791.283, 288.500 795.412 C 285.750 797.998, 296.142 790.075, 311.592 777.807 C 327.043 765.538, 350.854 746.725, 364.504 736 C 419.163 693.056, 432.271 677.989, 446.003 642.328 C 450.810 629.844, 450.868 630.502, 443.927 618.453 C 364.008 479.718, 365.770 296.260, 448.590 132.822 C 450.026 129.989, 452.221 122.383, 453.555 115.622 C 457.490 95.673, 459.449 89.544, 466.942 73.750 C 471.162 64.856, 471.585 65.143, 472.380 77.431 C 473.717 98.107, 480.569 131.168, 486.945 147.700 C 491.577 159.711, 504.924 180.334, 502.671 172 C 492.253 133.455, 494.697 96.382, 510.700 50.204 C 516.488 33.501, 517.121 34.263, 515.519 56 C 513.418 84.504, 513.027 139.719, 514.935 138.540 C 520.769 134.935, 522.129 126.985, 521.027 102.940 C 519.941 79.235, 520.794 47.827, 523.021 29.577 C 524.262 19.398, 524.302 19.401, 517.156 29.193 M 1147.394 51.834 C 1147.222 80.743, 1142.008 110, 1137.028 110 C 1135.885 110, 1133.947 103.504, 1129.869 86 C 1125.712 68.159, 1113.964 34.702, 1112.404 36.263 C 1112.235 36.432, 1113.416 40.781, 1115.030 45.928 C 1127.640 86.149, 1129.393 127.030, 1120.062 163.265 C 1116.799 175.937, 1117.888 175.653, 1128.365 161.102 C 1143.513 140.064, 1152.329 114.179, 1154.602 84.071 C 1154.976 79.113, 1155.617 75.263, 1156.026 75.516 C 1158.327 76.938, 1166.639 103.491, 1171.474 124.866 C 1176.420 146.732, 1183.806 168.069, 1195.794 195.116 C 1241.512 298.263, 1249.423 376.919, 1223.941 474.941 C 1214.952 509.522, 1203.329 539.866, 1176.806 598 C 1161.549 631.441, 1162.126 626.976, 1170.640 645.716 C 1186.154 679.864, 1199.965 694.342, 1272.500 752.495 C 1289.550 766.164, 1309.800 782.594, 1317.500 789.005 C 1345.766 812.541, 1351.088 815.941, 1328.500 796.032 C 1316.061 785.068, 1315.414 784.521, 1267.500 744.476 C 1198.856 687.105, 1187.154 674.152, 1173.607 640.556 C 1170.025 631.674, 1170.025 631.674, 1179.638 615.668 C 1241.452 512.742, 1262.002 393.925, 1235.879 290.500 C 1229.346 264.638, 1217.654 234.685, 1199.037 196.126 C 1179.992 156.677, 1177.410 149.014, 1169.064 107.155 C 1162.390 73.684, 1159.635 63.032, 1153.896 48.500 C 1147.361 31.954, 1147.514 31.876, 1147.394 51.834 M 534.071 133 C 533.822 138.273, 540.159 164.411, 545.969 182.074 C 570.572 256.859, 635.783 352.424, 693.921 398.892 C 705.783 408.373, 703.460 407.954, 722.500 404.042 C 773.011 393.664, 839.209 393.466, 893.913 403.532 C 901.290 404.889, 907.454 406, 907.611 406 C 909.827 406, 940.154 379.800, 957.363 363.018 C 1029.743 292.435, 1083.764 202.228, 1092.415 137.500 C 1092.917 133.741, 1092.859 133.801, 1091.449 138.500 C 1073.074 199.714, 1050.840 239.664, 1003.577 296.390 C 971.814 334.512, 936.681 370.468, 907.393 394.825 C 902.423 398.958, 902.167 399.046, 897.893 398.098 C 848.815 387.217, 771.277 387.113, 719.136 397.858 C 708.368 400.077, 706.522 398.868, 680.466 372.523 C 608.801 300.062, 557.466 218, 537.513 144 C 535.659 137.125, 534.110 132.175, 534.071 133 M 520.756 156 C 510.193 189.607, 507.434 225.660, 511.074 282.500 C 513.140 314.757, 518.743 331.530, 548.989 396 C 571.793 444.606, 588.051 484.996, 595.607 511.811 C 600.736 530.015, 600.406 529.883, 586.053 508 C 576.610 493.603, 574.348 490.343, 558.653 468.500 C 553.120 460.800, 545.084 449.596, 540.796 443.603 C 533 432.707, 533 432.707, 532.980 444.603 C 532.927 477.358, 519.479 523.061, 492.186 583.250 C 488.375 591.655, 489.543 592.287, 480.483 576.908 C 416.167 467.721, 409.246 336.464, 461.719 221 C 465.843 211.925, 470.804 200.900, 472.744 196.500 C 474.683 192.100, 476.829 187.825, 477.511 187 C 478.535 185.763, 477.858 183.941, 473.647 176.600 C 467.863 166.516, 469.092 164.937, 452.314 204 C 390.746 347.341, 395.878 463.566, 469.443 591.919 C 481.936 613.717, 481.534 609.991, 473.448 629.054 C 443.378 699.947, 403.495 744.083, 322.412 796.198 C 306.779 806.246, 306.974 805.781, 317.150 808.719 C 350.672 818.397, 391 835.604, 391 840.229 C 391 841.009, 381.990 841.142, 359.500 840.696 C 342.175 840.352, 328 840.294, 328 840.567 C 328 840.839, 345.212 852.469, 366.250 866.411 C 387.288 880.353, 415.525 899.320, 429 908.561 C 462.737 931.695, 510.671 963.766, 527.500 974.462 C 535.200 979.355, 553.875 991.225, 569 1000.838 C 662.438 1060.224, 715.934 1090.926, 752 1105.866 C 759.500 1108.973, 759.500 1108.973, 755 1105.321 C 746.582 1098.488, 729.527 1080.399, 720.500 1068.730 C 704.902 1048.564, 701.329 1038.830, 715.500 1055.107 C 771.699 1119.657, 872.570 1118.390, 925.020 1052.474 C 927.854 1048.914, 930.624 1046, 931.175 1046 C 932.288 1046, 923.427 1063.065, 918.892 1069.657 C 917.301 1071.969, 916 1074.083, 916 1074.354 C 916 1076.120, 1035.358 999.052, 1066.364 977.265 C 1187.426 892.202, 1226.188 838.288, 1209.557 778.103 C 1206.398 766.672, 1205.829 767.204, 1217.151 770.997 C 1235.075 777.002, 1249.847 787.624, 1250.101 794.690 C 1250.447 804.290, 1248.091 814.078, 1242.120 827.845 C 1239.936 832.880, 1238.362 837, 1238.621 837 C 1238.881 837, 1242.560 835.009, 1246.797 832.575 C 1260.076 824.948, 1284.395 816.269, 1303 812.518 C 1307.125 811.687, 1311.603 810.748, 1312.952 810.433 C 1315.003 809.954, 1313.263 808.747, 1302.297 803.043 C 1229.394 765.123, 1179.172 709.931, 1141.141 625.938 C 1133.683 609.468, 1133.299 613.726, 1144.115 592.981 C 1168.759 545.715, 1185.914 504.756, 1192.899 476.500 C 1214.809 387.876, 1209.667 317.524, 1174.811 229 C 1168.633 213.310, 1150.746 172.001, 1150.137 172.017 C 1148.241 172.067, 1140.136 186.497, 1141.557 187.292 C 1144.948 189.190, 1162.526 228.162, 1170.820 252.174 C 1206.398 355.168, 1192.308 472.896, 1131.706 579 C 1124.147 592.235, 1123.714 591.612, 1100.818 534.500 C 1084.236 493.138, 1081.514 481.774, 1081.506 453.893 C 1081.499 429.746, 1084.217 428.572, 1058.091 464 C 1042.004 485.815, 1026.785 507.602, 1019.521 519.215 C 1002.357 546.656, 1017.109 507.692, 1055.002 425.500 C 1121.024 282.293, 1124.137 268.538, 1108.860 187.500 C 1102.656 154.585, 1103.016 155.629, 1101.442 166.006 C 1093.637 217.484, 1063.836 283.071, 1019.431 346.500 C 966.964 421.444, 959.157 445.648, 972.578 491.750 C 973.724 495.687, 970.815 494.336, 963.965 487.750 C 901.732 427.921, 790.873 407.111, 706.304 439.384 C 684.196 447.821, 684.560 447.518, 660.540 477.500 C 644.537 497.476, 642.455 498.547, 646.090 484.931 C 654.902 451.931, 645.904 422.427, 607.988 360 C 551.063 266.275, 527.882 211.296, 523.239 159 C 522.485 150.500, 522.485 150.500, 520.756 156 M 1026.539 631.112 C 979.887 637.909, 937.460 697.410, 923.972 774.957 C 919.435 801.041, 920.126 812.600, 925.815 805.781 C 995.470 722.284, 1070.404 704.017, 1148.972 751.384 C 1162.957 759.814, 1155.600 751.398, 1139.500 740.546 C 1082.592 702.191, 1006.155 700.164, 959.666 735.779 C 955.725 738.799, 951.843 741.771, 951.040 742.385 C 949.045 743.908, 953.748 735.774, 962.747 722.136 C 999.146 666.977, 1061.628 645.364, 1114.256 669.730 C 1124.084 674.280, 1125.072 673.277, 1117.613 666.321 C 1088.064 638.766, 1056.846 626.697, 1026.539 631.112 M 579.164 632.052 C 559.254 635.619, 532.999 650.034, 514.500 667.556 C 507.109 674.557, 508.365 675.477, 518.821 670.720 C 573.957 645.634, 640.849 672.026, 676.671 733 C 685.048 747.259, 684.945 746.998, 680.915 743.733 C 639.369 710.075, 590.924 702.955, 534.500 722.213 C 516.195 728.461, 497.965 738.696, 486.535 749.142 C 480.141 754.985, 480.541 756.784, 487.215 752.203 C 554.431 706.067, 643.902 726.580, 703.500 801.792 C 714.724 815.957, 715.504 815.328, 712.541 794.500 C 698.094 692.965, 639.245 621.290, 579.164 632.052 M 411.548 755.742 C 396.041 780.430, 388.181 803.239, 390.969 815.455 C 399.995 854.995, 450.848 906.711, 548 975.152 C 611.365 1019.791, 738.893 1100.688, 746.340 1100.968 C 750.539 1101.126, 732.727 1087.907, 694.500 1062.495 C 495.589 930.263, 425.345 853.195, 417.332 758.399 C 416.533 748.950, 415.975 748.693, 411.548 755.742 M 1232.731 847.979 C 1198.752 911.186, 1152.881 945.759, 935.500 1072.003 C 887.271 1100.013, 870.522 1112.672, 898.631 1099.869 C 958.254 1072.713, 1060.874 1015.399, 1119.500 976.511 C 1154.122 953.545, 1169.511 942.154, 1235 891.012 C 1258.309 872.810, 1276.776 858.906, 1292.857 847.452 C 1301.214 841.500, 1301.214 841.500, 1270.357 841 C 1253.386 840.725, 1239.042 840.201, 1238.483 839.835 C 1237.906 839.457, 1235.421 842.975, 1232.731 847.979 M 786.742 840.987 C 749.111 843.946, 728 851.344, 728 861.570 C 728 876.304, 772.480 914.127, 801.344 923.938 C 806.438 925.670, 806.438 925.670, 801.969 928.928 C 757.468 961.369, 662.484 929.224, 643.988 875.465 C 641.680 868.757, 642.113 868.042, 648.500 868.012 C 653.892 867.987, 670.271 865.089, 671.427 863.955 C 677.198 858.297, 628.939 854.372, 607.842 858.783 C 586.925 863.157, 587.759 866.145, 610.353 867.784 C 620.233 868.500, 620.233 868.500, 622.115 875.923 C 626.318 892.498, 637.273 908.349, 654.500 922.783 C 660 927.391, 664.677 931.687, 664.894 932.331 C 665.976 935.547, 683.352 969.506, 687.400 976.317 C 774.885 1123.527, 895.314 1109.345, 970.845 942.938 C 974.230 935.479, 977 929.004, 977 928.550 C 977 928.095, 981.839 922.722, 987.753 916.611 C 1004.150 899.668, 1013.894 882.946, 1014.329 871.003 C 1014.500 866.314, 1014.500 866.314, 1027 865.163 C 1045.233 863.484, 1047.894 862.228, 1039.444 859.292 C 1022.215 853.307, 986.263 853.784, 968.250 860.237 C 961.055 862.815, 964.697 864.940, 977.500 865.636 C 993.025 866.479, 992.892 866.305, 988 879.304 C 970.092 926.891, 888.004 955.713, 838.084 931.940 C 828.982 927.606, 828.822 926.913, 836.500 925.075 C 870.124 917.025, 919.329 866.728, 905.750 854.287 C 894.176 843.683, 835.640 837.141, 786.742 840.987 M 781.402 857.013 C 751.984 859.882, 735.462 866.744, 757.500 866.939 C 784.799 867.182, 862.800 861.541, 855 859.889 C 842.793 857.303, 796.841 855.507, 781.402 857.013 M 942.500 945.569 C 905.840 962.689, 859.947 964.973, 825.756 951.380 C 817.011 947.904, 817.011 947.904, 809.380 951.525 C 782.201 964.422, 741.189 964.055, 703.500 950.577 C 698 948.610, 693.381 947, 693.237 947 C 689.898 946.997, 716.492 990.979, 730.356 1008.392 C 801.073 1097.208, 895.011 1072.936, 946.009 952.672 C 950.959 940.998, 951.208 941.502, 942.500 945.569 M 1108.894 1006.640 C 1074.138 1031, 1047.820 1056.720, 996.993 1116 C 959.863 1159.304, 927.460 1183.910, 887.539 1199.114 C 877.500 1202.938, 877.500 1202.938, 926.908 1202.969 C 983.724 1203.005, 977.269 1204.768, 997.754 1183.621 C 1027.117 1153.310, 1053.943 1109.207, 1082.463 1044.350 C 1090.177 1026.807, 1092.005 1024.183, 1091.993 1030.667 C 1091.985 1034.364, 1085.992 1065.416, 1084.497 1069.500 C 1084.095 1070.600, 1088.028 1067, 1093.237 1061.500 C 1098.447 1056, 1106.753 1048.016, 1111.696 1043.757 C 1119.578 1036.966, 1126.885 1003.551, 1121.635 998.302 C 1121.444 998.111, 1115.710 1001.863, 1108.894 1006.640 M 525.477 1001.250 C 525.760 1002.487, 527.345 1011.469, 528.998 1021.210 C 532.733 1043.212, 534.612 1051.371, 536.055 1051.852 C 544.762 1054.754, 576.264 1086.755, 595.765 1112.509 C 597.956 1115.403, 597.944 1115.272, 595.396 1108.500 C 590.383 1095.175, 586.164 1081.452, 583.712 1070.500 C 579.867 1053.325, 580.989 1053.720, 591.565 1073.267 C 620.156 1126.105, 653.470 1165.687, 693.372 1194.231 C 698.943 1198.216, 703.650 1201.819, 703.833 1202.238 C 704.017 1202.657, 718.417 1202.996, 735.833 1202.991 C 767.500 1202.982, 767.500 1202.982, 756.500 1198.149 C 723.262 1183.546, 699.468 1164.832, 649.540 1114.023 C 575.922 1039.109, 560.639 1024.585, 536.158 1006.278 C 525.542 998.339, 524.722 997.953, 525.477 1001.250 M 1139.366 1042.840 C 1122.844 1048.550, 1098.300 1072.295, 1071.494 1108.500 C 1045.356 1143.803, 1007.027 1199.524, 1007.006 1202.250 C 1007.003 1202.662, 1036.194 1203, 1071.876 1203 C 1143.111 1203, 1136.314 1206.024, 1156.097 1165.536 C 1157.969 1161.705, 1160.084 1158.398, 1160.798 1158.187 C 1162.281 1157.747, 1162.256 1157.991, 1158.117 1185 C 1155.435 1202.500, 1155.435 1202.500, 1211.376 1202.758 C 1276.705 1203.060, 1269.360 1204.889, 1263.473 1189.786 C 1223.204 1086.488, 1175.726 1030.273, 1139.366 1042.840 M 497.218 1060.408 C 473.981 1068.006, 440.617 1127.522, 418.543 1200.750 C 417.865 1203, 417.865 1203, 474.433 1203 C 529.919 1203, 531 1202.963, 531 1201.043 C 531 1199.967, 529.420 1192.922, 527.489 1185.387 C 522.581 1166.237, 522.948 1166.318, 536.985 1187.500 C 541.359 1194.100, 545.514 1200.300, 546.219 1201.278 C 547.422 1202.947, 550.520 1203.039, 596.839 1202.778 C 650.627 1202.475, 649.287 1205.021, 618.039 1162.500 C 550.441 1070.516, 526.966 1050.679, 497.218 1060.408 M 987.120 1075.133 C 863.973 1159.357, 782.981 1158.903, 652.266 1073.255 C 642.720 1067, 701.077 1121.347, 721.413 1137.650 C 807.068 1206.320, 867.632 1197.789, 963.865 1103.500 C 979.968 1087.723, 998.894 1067.968, 997.858 1068.017 C 997.661 1068.027, 992.829 1071.229, 987.120 1075.133 M 306.502 1217.574 C 297.554 1222.244, 295.248 1228.920, 297.892 1242.500 C 307.086 1289.710, 377.202 1590.367, 381.313 1600.206 C 385.542 1610.328, 395.736 1617.037, 392.863 1607.808 C 391.815 1604.440, 387.164 1584.768, 382.528 1564.092 C 377.892 1543.416, 371.588 1515.475, 368.518 1502 C 357.390 1453.154, 354.027 1438.205, 350.519 1422 C 348.554 1412.925, 344.497 1394.250, 341.504 1380.500 C 324.577 1302.755, 314 1251.789, 314.004 1248 C 314.014 1240.078, 323.246 1234.423, 338.630 1232.915 C 359.228 1230.895, 1363.986 1232.219, 1367.741 1234.271 C 1375.932 1238.747, 1375.968 1255.389, 1367.906 1310.354 C 1366.063 1322.919, 1365.753 1330.544, 1367.461 1321.297 C 1367.847 1319.208, 1370.853 1305.800, 1374.142 1291.500 C 1388.339 1229.769, 1388.595 1225.840, 1378.867 1218.901 C 1374.514 1215.797, 312.425 1214.482, 306.502 1217.574 M 1062.500 1266.682 C 417.052 1270.448, 403 1270.612, 403 1274.402 C 403 1277.819, 1279.527 1280.298, 1283.630 1276.892 C 1285.431 1275.397, 1285.324 1271.013, 1283.425 1268.500 C 1281.869 1266.441, 1208.002 1265.833, 1062.500 1266.682 M 307.932 1439.726 C 258.123 1490.155, 228.105 1527.925, 228.006 1540.293 C 228.001 1540.962, 350.956 1540.170, 351.785 1539.495 C 352.053 1539.278, 341.998 1496.996, 340.134 1490.500 C 339.661 1488.850, 338.801 1487.600, 338.223 1487.721 C 336.086 1488.171, 307.524 1504.255, 293.363 1512.984 C 277.315 1522.874, 278 1522.529, 278 1520.727 C 278 1517.753, 299.390 1498.587, 319.500 1483.540 C 326.650 1478.191, 333.230 1473.234, 334.122 1472.526 C 335.813 1471.184, 335.486 1469.429, 326.338 1430.726 C 324.500 1422.951, 324.500 1422.951, 307.932 1439.726 M 1353.383 1460.628 C 1349.350 1477.117, 1349.350 1477.117, 1357.270 1484.809 C 1376.842 1503.815, 1385.634 1521.629, 1384.846 1540.678 C 1384.500 1549.055, 1384.500 1549.055, 1397.500 1548.777 C 1412.104 1548.466, 1414.035 1544.440, 1409.047 1524.713 C 1404.193 1505.518, 1370.229 1452.058, 1358.142 1444.588 C 1357.743 1444.341, 1355.602 1451.560, 1353.383 1460.628 M 247.500 1582.933 C 228.033 1584.476, 208.548 1588.949, 210.928 1591.328 C 211.978 1592.377, 363.693 1592.852, 364.436 1591.808 C 368.970 1585.440, 362.394 1583, 340.691 1582.998 C 328.486 1582.997, 304.775 1582.804, 288 1582.568 C 271.225 1582.333, 253 1582.497, 247.500 1582.933 M 1330 1584.758 C 1330 1586.451, 1329.705 1588.605, 1329.344 1589.545 C 1328.631 1591.404, 1344.085 1591.294, 1412 1588.955 C 1462.043 1587.232, 1466.563 1586.027, 1430.500 1584.025 C 1378.109 1581.117, 1330 1581.467, 1330 1584.758" stroke="none" fill="#ffffff" fill-rule="evenodd"/></svg>