<svg xmlns="http://www.w3.org/2000/svg" width="1648" height="1648" version="1.1"><rect id="backgroundrect" width="100%" height="100%" x="0" y="0" fill="none" stroke="none"/><g class="currentLayer" style=""><title>Layer 1</title><path d="M 1153.344 165.606 C 1151.608 169.088, 1150.619 171.839, 1151.146 171.719 C 1154.399 170.976, 1187.810 258.153, 1195.519 287.500 C 1212.849 353.465, 1210.078 436.939, 1188.535 497.906 C 1185.023 507.847, 1188.159 502.224, 1192.767 490.319 C 1229.996 394.131, 1223.405 307.949, 1169.627 187.748 C 1163.782 174.684, 1159 163.633, 1159 163.189 C 1159 158.571, 1156.269 159.738, 1153.344 165.606 M 479.877 185.710 C 482.286 190.488, 482.395 191, 481 191 C 480.450 191, 480 190.298, 480 189.441 C 480 186.904, 478.134 188.802, 475.481 194.038 C 472.261 200.393, 472.350 201.827, 475.603 196 C 478.618 190.599, 478.389 191.323, 471.019 210.500 C 442.419 284.916, 437.278 346.993, 453.104 426.800 C 459.971 461.427, 474.032 507.141, 483.771 526.500 C 487.913 534.733, 486.903 536.141, 496.850 508.266 C 510.414 470.253, 510.570 468.694, 503.689 439.899 C 484.007 357.530, 480.550 277.714, 493.864 213.107 C 495.772 203.848, 492.058 196.456, 478.232 182 C 477.969 181.725, 478.709 183.395, 479.877 185.710 M 1141.873 184.250 C 1141.214 185.488, 1137.302 190.741, 1133.180 195.924 C 1125.686 205.347, 1125.686 205.347, 1126.812 213.924 C 1135.280 278.432, 1128.712 357.377, 1107.951 440.609 C 1100.133 471.955, 1099.387 466.327, 1117.974 516.250 C 1125.448 536.326, 1124.343 536.065, 1131.875 519.535 C 1184.050 405.026, 1189.488 310.533, 1149.934 205.726 C 1147.240 198.589, 1145.213 192.464, 1145.430 192.114 C 1145.646 191.764, 1145.170 190.585, 1144.372 189.494 C 1143.127 187.792, 1142.787 187.722, 1141.976 189.005 C 1140.376 191.535, 1140.823 188.244, 1142.526 184.950 C 1143.365 183.328, 1143.831 182, 1143.561 182 C 1143.291 182, 1142.531 183.012, 1141.873 184.250 M 774.943 413.074 C 754.441 414.466, 730.574 417.970, 709.738 422.648 C 702.975 424.166, 702.975 424.166, 695.843 433.833 C 691.920 439.150, 685.561 447.325, 681.711 452 C 674.713 460.500, 674.713 460.500, 680.607 454.599 C 701.570 433.606, 769.028 420.672, 825 426.913 C 888.292 433.970, 925.532 449.850, 963.433 485.945 C 970.614 492.784, 970.878 492.950, 966.212 487.701 C 963.378 484.512, 956.012 475.287, 949.843 467.201 C 936.182 449.294, 920.035 429.288, 916.819 426.285 C 907.339 417.435, 824.431 409.715, 774.943 413.074 M 410.307 760.567 C 395.525 787.186, 392.743 794.590, 392.676 807.500 C 392.472 846.249, 444.734 901.659, 552.500 976.953 C 632.922 1033.143, 748.384 1105.521, 742.556 1096.091 C 741.137 1093.795, 728.145 1084.641, 687.280 1057.145 C 582.886 986.905, 538.054 952.515, 500.500 913.871 C 455.849 867.925, 427.567 816.057, 419.045 764.488 C 417.864 757.344, 416.781 751.080, 416.638 750.567 C 416.495 750.054, 413.646 754.554, 410.307 760.567 M 1209 769.583 C 1209 769.904, 1209.879 773.617, 1210.953 777.833 C 1228.251 845.730, 1181.734 902.820, 1024.705 1006.415 C 983.029 1033.910, 919.592 1074.072, 917.286 1074.422 C 916.618 1074.524, 913.775 1077.283, 910.967 1080.553 C 908.160 1083.824, 902.856 1089.342, 899.181 1092.816 C 892.500 1099.132, 892.500 1099.132, 898 1095.241 C 905.255 1090.108, 911.620 1086.296, 955.794 1060.626 C 1149.330 948.158, 1199.716 909.791, 1232.398 850 C 1236.704 842.123, 1239.755 838.426, 1244.586 835.236 C 1245.639 834.540, 1245.037 834.665, 1243.250 835.511 C 1239.210 837.426, 1239.213 837.340, 1243.602 826.456 C 1253.916 800.878, 1253.277 790.771, 1240.807 782.222 C 1230.944 775.460, 1209 766.741, 1209 769.583" stroke="none" fill="#bcc1c4" fill-rule="evenodd" id="svg_1"/><path d="M514.54498,45.546C499.151,82.39 495.02301,127.213 503.42899,166.25C506.09299,178.617 505.91599,178.933 500.5,171.498C485.95099,151.52499 473,107.152 473,77.276C473,59.732 461.53299,85.489 455.53699,116.5C454.21899,123.318 451.496,130.687 444.306,146.89101C367.23599,320.60699 367.58099,480.57199 445.32001,617.24298C453.263,631.20599 453.12601,629.46198 447.409,643.90302C434.49399,676.52502 420.46899,693.55402 379.89401,725.88C302.017,787.92401 274.439,809.45898 273.211,809.18298C272.41901,809.005 272.08899,809.33398 272.45901,809.93298C272.82101,810.52002 273.604,811 274.19901,811C276.67099,811 277.75101,814.19202 276.27802,817.14502C274.34799,821.01398 275.285,823.22198 280.802,827.797C291.539,836.70203 360.272,884.49902 410.5,917.98798C474.59601,960.724 503.86301,982.005 508.45099,989.20898C510.052,991.72302 512.12,1006.21997 514.521,1031.75C515.20099,1038.97998 515.19702,1039 512.724,1039C511.35999,1039 508.629,1039.68005 506.65399,1040.5C504.67999,1041.31995 501.457,1042 499.492,1042C485.01801,1042 446.37399,1095.31995 431.14801,1136.29004C422,1152.5 428.27679,1143.46667 422.76981,1155.44666C417.90881,1166.0166 406,1201.32996 406,1202.87C398.90063,1202.96301 401.95599,1203.43005 349.50101,1204C303.5,1204.5 303.5,1204.5 298.845,1207.23999C285.858,1214.87 281.34,1229.30005 285.92401,1248.5C286.974,1252.90002 292.14899,1275.84998 297.423,1299.5C302.69699,1323.15002 310.293,1356.68005 314.30399,1374C321.59601,1405.5 321.59601,1405.5 305.49899,1423C228.674,1506.52002 211.11099,1532.22998 216.66701,1553.05005C217.689,1556.87 217.689,1556.87 211.17101,1557.56995C204.7,1558.27002 203.907,1558.71997 199.21899,1564.5C192.636,1572.60999 190.198,1590.43994 194.32899,1600.27002C195.2,1602.33997 195.97099,1604.37 196.04201,1604.77002C196.327,1606.39001 198.19099,1607.79004 200.772,1608.31006C202.27299,1608.60999 204.494,1609.79004 205.70799,1610.93005C206.923,1612.06995 208.192,1613 208.53,1613C208.867,1613 209.81799,1613.68005 210.64301,1614.5C211.787,1615.64001 214.912,1616.03003 223.821,1616.14001C230.245,1616.20996 253.5,1616.56995 275.5,1616.93994C315.01599,1617.60999 314.646,1617.62 245,1617.94995C206.22501,1618.14001 147.5,1618.57996 114.5,1618.94995C60.082,1619.55005 58.128,1619.62 93.5,1619.75C114.95,1619.81995 187.85001,1619.51001 255.5,1619.04004C378.5,1618.19995 378.5,1618.19995 384.25,1620.73999C389.52802,1623.06006 392.35199,1625.81006 388.25,1624.63C387.28699,1624.34998 325.75,1623.87 251.5,1623.56006C177.25,1623.25 97.15,1622.81995 73.5,1622.59998C37.753,1622.28003 34.042,1622.37 51.5,1623.09998C77.141,1624.18005 389.16,1625.81006 390.34799,1624.88C390.814,1624.51001 392.61401,1624.91003 394.34799,1625.77002C400.27301,1628.71997 400.974,1629 402.33301,1629C403.08099,1629 405.125,1629.70996 406.87601,1630.58997C423.112,1638.68994 393.46899,1638.21997 858.94598,1637.75C1252.08997,1637.35999 1283.93005,1637.19995 1289.33997,1635.65002C1297.94995,1633.18005 1309.02002,1627.81006 1315.41003,1622.97998C1321.03003,1618.72998 1321.03003,1618.72998 1436.27002,1619.22998C1505.98999,1619.52002 1530.17004,1619.43994 1497.5,1619C1467.80005,1618.59998 1424.15002,1618.18994 1400.5,1618.06995C1375.43005,1617.94995 1358.32996,1617.5 1359.5,1617C1360.59998,1616.53003 1378.88,1616.10999 1400.13,1616.06995C1438.45996,1616 1447.72998,1615.31995 1455.5,1611.98999C1456.59998,1611.52002 1459.20996,1610.60999 1461.31006,1609.96997C1475.02002,1605.77002 1484.31995,1572.88 1473.66003,1566.29004C1473.06006,1565.92004 1472.92004,1566.34998 1473.30005,1567.34998C1476.43994,1575.53003 1476.37,1589.66003 1473.15002,1595.77002C1471.43005,1599.04004 1471.43005,1599.04004 1471.43005,1590.27002C1471.42004,1568.01001 1464.06995,1562.08997 1433.77002,1559.90002C1419.06995,1558.82996 1417.13,1558.54004 1418.12,1557.54004C1418.81006,1556.85999 1446.14478,1554.18542 1455.32715,1554.79004C1464.50952,1555.39465 1462.93994,1554.53003 1449.5,1554.04004C1441.25,1553.73999 1435.40955,1554.10486 1434.17004,1554.25C1432.93054,1554.39514 1428.22205,1554.16284 1427.60999,1553.57996C1426.99792,1552.99707 1427.43994,1551.07996 1426.57996,1549.76001C1425.25,1547.72998 1425.18005,1546.43005 1426.10999,1541.43005C1430.32996,1518.87 1406.67004,1475.67004 1367.14001,1433.77002C1359.87,1426.06006 1359.14001,1432.87 1375.16003,1359.5C1377.92004,1346.84998 1383.51001,1321.19995 1387.57996,1302.5C1391.65002,1283.80005 1395.85999,1264.44995 1396.94995,1259.5C1402.88,1232.42004 1402.76001,1233.68994 1400.02002,1224.81006C1394.10999,1205.67004 1390.84998,1204.59998 1336.40002,1204C1302,1203.62 1290.70996,1203.98999 1289.55005,1203.02002C1288.27002,1201.95996 1289.37,1204.60999 1286.10999,1198.95996C1282.83997,1193.31006 1272.68994,1171.25 1271.63,1168.91003C1270.56006,1166.57996 1259.42004,1143.58997 1259.15002,1142.31995C1258.88,1141.05005 1238.97998,1098.31995 1223.18005,1076.05005C1200.59998,1044.22998 1165.90002,1022.03998 1144.94995,1026.01001C1135.55005,1027.79004 1136.18005,1029.38 1138.29004,1009.25C1140.62,987.013 1141.20996,984.67401 1145.28003,981.70502C1147.05005,980.414 1155.25,974.46503 1163.5,968.48499C1178.06006,957.93597 1195.25,944.55402 1251.5,899.97998C1286.68994,872.09497 1303.77002,858.21198 1313,849.99298C1323.22998,840.88202 1328.35999,837.34302 1332.44995,836.57501C1336.76001,835.76703 1340,831.82898 1340,827.40002C1340,825.23102 1340.95996,822.92297 1342.75,820.78198C1348.39001,814.039 1348.43005,814.23401 1340.06995,807.89697C1335.91003,804.74298 1328.65002,798.84198 1323.94995,794.78302C1319.25,790.72498 1299.44995,774.62598 1279.94995,759.008C1200.90002,695.69202 1191.31006,685.91498 1173.18005,650.21899C1162.39001,628.992 1162.43005,630.41699 1172.02002,608.96301C1207.88,528.74902 1216.55005,505.901 1226.04004,466.64301C1248.95996,371.811 1239.48999,291.76001 1193.18994,189C1183.83997,168.246 1177.16003,148.43401 1171.03003,123.325C1166.37,104.231 1160.13,83.336 1158.17004,80.234C1157.69995,79.509 1156.83997,84.043 1156.14001,90.859C1152.90002,122.228 1127.40002,164.74699 1123.51001,170.32899C1119.60999,175.911 1120.19995,173.95799 1117.04004,165.147C1111.41003,149.03 1102.58997,117.426 1101.96997,118.802C1101.34998,120.177 1099.14001,134.666 1096.67004,142C1094.19995,149.334 1006.84003,330.95901 917.80499,400.30801C909.10999,407.07999 909.10999,407.07999 895.80499,404.57501C865.47302,398.86301 829.453,396.358 793.5,397.461C764.79199,398.341 748.53802,400.15302 719.77802,405.68201C704.19397,408.677 703.66602,408.42401 679.41302,386.30301C611.79102,324.625 537.60797,147.593 535.53101,140.619C533.45398,133.645 526.047,110.301 524.88,106.5C523.71301,102.699 517.68201,158.05901 514.69202,136.5C513.67603,129.168 514.625,63.961 515.92999,51.519C517.00299,41.281 516.76202,40.241 514.54498,45.546L514.54498,45.546M521.22101,156.5C511.56299,186.763 508.00299,227.78999 510.90601,275.38501C513.33801,315.267 517.32098,327.72198 549.92798,397.41699C573.20599,447.17099 588.42499,485.28101 596.53101,514.11102C599.52502,524.76099 599.29102,525.89203 595.45502,519.29498C590.59998,510.94501 581.263,497.367 559.14801,466.5C547.32703,450 536.65997,435.052 535.44299,433.28201C533.23199,430.06299 533.23199,430.06299 532.71802,449.78201C531.87201,482.272 526.77899,500.42599 500.82199,563.474C495.39301,576.65997 490.59299,587.80701 490.15399,588.24597C486.435,591.96503 454.233,522.953 445.07599,491.638C417.125,396.05301 424.71899,304.18201 468.25299,211.224C478.42499,189.50301 480.078,187.214 473.42899,204.05701C442.66699,281.98199 436.90601,345.117 453.104,426.79999C459.97101,461.427 474.03201,507.14099 483.771,526.5C487.91299,534.73297 486.90302,536.14099 496.85001,508.26599C510.414,470.25299 510.57001,468.694 503.689,439.89899C484.009,357.53601 480.54999,277.71301 493.862,213.118C495.79501,203.73599 495.79501,203.73599 486.979,192.81C482.129,186.8 476.26801,178.243 473.953,173.79401C471.02701,168.168 469.50699,166.13 468.96301,167.10201C392.255,304.22198 392.47,456.60599 469.56201,591.58099C482.31799,613.914 482.45901,612.30298 464.47601,649.78302C436.95499,707.14398 391.21701,753.74902 318.09201,798.94299C306.12,806.34198 306.16501,806.21301 314.75,808.50702C339.60901,815.14899 381.26199,831.72699 389,838.05902C391.5,840.104 391.5,840.104 358.772,839.77399C340.771,839.59198 326.371,839.74402 326.772,840.11102C327.172,840.47803 348.42499,854.73602 374,871.79498C399.57501,888.85498 429.04999,908.68402 439.5,915.85901C570.90698,1006.09003 702.77698,1086.02002 758.40802,1109.15002C767.22198,1112.81006 767.34601,1112.5 759.40802,1106.62C746.64203,1097.17004 731.53302,1081.31006 718.82202,1064C707.72803,1048.90002 707.93201,1047.71997 719.60699,1059.5C781.83197,1122.27002 874.758,1118.06006 929.414,1050C933.62,1044.76001 924.01202,1062.66003 917.71002,1071.80005C911.00702,1081.53003 898.51703,1094.06995 886.66302,1102.97998C881.34802,1106.96997 877,1110.37 877,1110.53003C877,1113.70996 960.21503,1071.77002 1017,1039.97998C1022.21997,1037.05005 1029.88,1032.77002 1034,1030.46997C1101.09998,993.047 1153.07996,957.63898 1228.68005,897.867C1246.97998,883.38898 1285.30005,854.49103 1296.78003,846.5C1300.72998,843.75 1303.96997,841.16302 1303.97998,840.75C1303.98999,840.33698 1289.56006,840 1271.92004,840C1235.46997,840 1235.96997,840.16101 1249.56006,832.83099C1266,823.96198 1286.66003,816.83899 1308.29004,812.57599C1319.08997,810.44897 1319.08997,810.44897 1308.79004,805.23901C1242.04004,771.48102 1188.26001,717.56097 1155.08997,651.133C1134.91003,610.71002 1135.07996,615.13898 1152.33997,580.65601C1179.81995,525.745 1197.87,481.13 1205.91003,448.22299C1226.31995,364.64001 1216.84998,294.12799 1171.51001,192C1165.29004,177.97501 1159.44995,164.703 1158.55005,162.506C1156.90002,158.51199 1156.90002,158.51199 1154.98999,162.76801C1152.08997,169.252 1141.43994,185.40199 1133.13,195.924C1125.68994,205.347 1125.68994,205.347 1126.81006,213.924C1135.28003,278.43201 1128.70996,357.37701 1107.94995,440.60901C1100.13,471.95499 1099.39001,466.327 1117.96997,516.25C1125.44995,536.32599 1124.33997,536.065 1131.88,519.53497C1184.06006,405.008 1189.48999,310.53699 1149.92004,205.68201C1143.44995,188.55099 1144.19995,188.729 1152.26001,206.235C1192.65002,294.03 1200.82996,372.311 1179.04004,462.5C1166.73999,513.40997 1129.34998,596.82599 1124.15002,584.94397C1086.23999,498.20999 1078.88,471.056 1083.72998,435.75C1084.23999,432.03799 1084.55005,429 1084.42004,429C1083.20996,429 1029.01001,504.69299 1020.51001,518.245C1014.41998,527.95801 1014.21997,527.68201 1018.40997,515.42401C1025.58997,494.41101 1029.44995,485.46201 1058.5,422.5C1123.16003,282.33899 1126.55005,266.586 1110.01001,183.23199C1107.26001,169.334 1105,156.873 1105,155.541C1105,149.08099 1103.28003,153.276 1102.19995,162.37399C1096.07996,213.87 1066.06995,280.26001 1017.35999,350C969.27399,418.867 959.052,449.52301 971.59302,487.28C975.09003,497.80899 968.71997,491.944 949.987,467.38901C936.19702,449.31299 920.047,429.29901 916.81897,426.285C914.98199,424.57101 910.50098,423.28601 896.97302,420.59399C839.966,409.24899 778.94702,409.08099 722.224,420.11301C702.12799,424.021 704.03998,422.89499 693.09998,437.26001C676.375,459.22101 647.61298,494.013 646.83002,493.23001C646.41602,492.81601 646.97101,489.10699 648.06403,484.98801C656.85901,451.845 647.98999,422.76901 609.93903,360C552.08801,264.56699 528.53302,208.07899 525.08099,156.5C524.41199,146.5 524.41199,146.5 521.22101,156.5M1026.82996,631.95599C977.953,640.909 934.995,705.21997 924.45001,785.23102C921.586,806.95502 922.51099,810.435 929,802.35999C993.146,722.53699 1075.03003,703.927 1152,751.677C1160.73999,757.09802 1150.95996,748.63202 1139.53003,740.87903C1084.09998,703.28101 1006.13,701.33698 961.5,736.44098C947.63898,747.34399 948.50403,746.89398 951.06097,741.88098C986.71997,671.98199 1059.90002,640.35999 1117.72998,669.862C1125.87,674.01501 1124.31006,671.83197 1111.5,661.14697C1082.87,637.26801 1053.37,627.09497 1026.82996,631.95599M578,633.55298C564.40997,636.46698 550.32098,642.84802 535.44702,652.82599C526.47198,658.84698 509.75,673.78003 513.5,672.42499C514.59998,672.02698 519.44397,670.18298 524.26501,668.32599C579.13202,647.19098 643.60303,673.40802 677.16498,730.5C688.66101,750.05701 688.90997,750.87701 681.39502,744.41199C630.64099,700.75201 538.66699,703.185 488.5,749.51398C483.64999,753.99298 483.841,754.50897 489.02399,750.92902C555.63501,704.92401 643.27698,725.81598 706.409,802.75C713.34601,811.20203 715.39301,812.70801 714.57001,808.75C714.31299,807.513 713.82397,803.34998 713.48499,799.5C709.90802,758.96399 687.54901,702.02399 662.42102,669.45697C639.97998,640.37402 608.54199,627.00299 578,633.55298M790,841.67798C753.08398,844.37201 729.97998,851.98199 730.00897,861.43701C730.052,875.46399 771.26202,911.37299 799.75,922.20599C809.62,925.96002 809.51202,925.49799 801.75,930.72601C756.29102,961.35101 664.18903,929.73999 644.90198,876.89301C643.26501,872.409 642.05499,868.65302 642.21301,868.54602C642.37097,868.43903 648.51599,867.58899 655.86902,866.659C672.27002,864.58197 674.04999,863.81702 667.396,861.70001C649.53003,856.01801 623.96698,855.72998 603.53601,860.98102C590.40997,864.354 593.34302,865.88501 616.18799,867.58099C624.20697,868.177 624.78998,868.36401 623.75897,870.01501C619.02301,877.599 637.021,906.42499 656.71301,922.79401C662.37097,927.49799 667,931.71301 667,932.16101C667,935.31299 687.66901,974.19098 697.48297,989.5C783.74103,1124.05005 905.30103,1100.35999 974.54303,935.5C977.95099,927.38599 979.32202,925.466 988.46698,916C1005.66998,898.19397 1015,881.81598 1015,869.42499C1015,865.75403 1016.23999,865 1022.26001,865C1028.76001,865 1044,862.82397 1044,861.89697C1044,857.28998 1003.88,854.25897 985,857.44C961.80701,861.34698 961.44598,863.95001 983.86499,865.61102C995.00098,866.43597 995.41998,868.612 987.52802,884.633C964.77802,930.81799 886.724,955.80298 838.25,932.41803C827.18298,927.07898 827.11401,926.85999 835.84399,924.81097C870.96002,916.57001 919.21503,868.01501 905.71002,854.51001C895.815,844.61499 837.84198,838.18597 790,841.67798M775.5,857.08301C751.38397,860.39502 738.38501,866.27301 752.10797,867.65997C765.96002,869.06097 865.84601,862.51202 863.67798,860.34497C860.95599,857.62201 790.54102,855.01801 775.5,857.08301M945,944.11401C909.74701,962.35901 858.14203,964.80798 824.89001,949.81403C818.28101,946.83301 818.28101,946.83301 810.96002,950.52002C784.87402,963.65698 740.177,963.21198 703.43103,949.44897C691.56201,945.00299 691.80499,944.65399 698.07098,957.14502C766.45898,1093.46997 875.56598,1098.53003 940.80103,968.38501C954.14203,941.77197 954.59601,939.14801 945,944.11401M525.495,1001.15997C533.573,1051.18994 533.20099,1050.10999 545.65802,1059.40002C559.41803,1069.65002 579.76501,1091.52002 596.73102,1114.28003C604.73499,1125.02002 605.02502,1124.90002 599.862,1112.93994C589.92401,1089.93994 579.35498,1049.14001 587.88,1066.68994C606.56702,1105.15002 641.383,1150.84998 673,1178.42004C702.25299,1203.93005 703.474,1204.43005 736.77197,1204.83997C776.62903,1205.32996 777.65997,1205.13 763.96802,1199.58997C724.14099,1183.46997 708.62402,1170.92004 626.5,1088.43994C568.98401,1030.67004 560.91998,1023.09998 540.80103,1007.94C524.58502,995.72198 524.61902,995.73602 525.495,1001.15997M1112.78003,1003.90002C1079.43005,1026.21997 1056.31995,1048.08997 1009.13,1102C956.81097,1161.78003 928.94897,1183.60999 884.612,1199.57996C870.35797,1204.70996 870.89001,1204.77002 930.87701,1204.90002C977.255,1205 977.255,1205 985.80798,1197.75C1015.90997,1172.23999 1046.12,1127.78003 1073.97998,1068C1087.66003,1038.67004 1091.22998,1031.5 1091.65002,1032.59998C1092.15002,1033.93005 1086.59998,1062.48999 1084.48999,1069.42004C1082.42004,1076.23999 1082.37,1076.27002 1094.14001,1063.71997C1099.93994,1057.55005 1108.76001,1048.93005 1113.73999,1044.56006C1122.81006,1036.62 1122.81006,1036.62 1123.48999,1021.56C1124.70996,994.677 1125.23999,995.55603 1112.78003,1003.90002M1144.93005,1041.01001C1124.81006,1044.41003 1097.92004,1071.47998 1055.56995,1131C1020.83002,1179.82996 1007,1200.39001 1007,1203.20996C1007,1204.66003 1137.60999,1204.18005 1138.81995,1202.71997C1139.40002,1202.02002 1144.68005,1192.08997 1150.55005,1180.66003C1156.42004,1169.22998 1161.41003,1160.07996 1161.65002,1160.31006C1161.88,1160.55005 1160.91003,1168.56006 1159.5,1178.12C1158.07996,1187.68005 1156.65002,1197.41003 1156.31995,1199.75C1155.72998,1204 1155.72998,1204 1212.85999,1204C1247.87,1204 1270,1203.64001 1270,1203.06006C1270,1199.95996 1255.62,1164.95996 1245.70996,1143.93994C1212.94995,1074.46997 1175.18994,1035.91003 1144.93005,1041.01001M500.73401,1059.02002C477.95999,1064.79004 448.10501,1112.90002 425.46201,1180.31995C416.172,1207.97998 408.79099,1204.44995 476.63599,1204.80005C542.448,1205.14001 535.18201,1207.69995 529.95203,1186C526.67297,1172.39001 527.57703,1172.96997 540.30402,1192.59998C548.25201,1204.85999 550.35303,1205.19995 614.91199,1204.89001C651.29401,1204.71997 650.07397,1205.17004 642.82202,1194.5C569.45898,1086.54004 532.23102,1051.05005 500.73401,1059.02002M987.42499,1074.45996C864.82599,1156.82996 792.479,1157.84998 664.81403,1079.01001C641.526,1064.63 641.617,1064.81995 671.57703,1093.44995C758.30298,1176.33997 803.22803,1196.28003 860.77197,1177.43005C898.98401,1164.92004 952.77197,1123.20996 997.94202,1071.06995C1004.90002,1063.04004 1003.97998,1063.32996 987.42499,1074.45996M309.79099,1215.98999C291.88101,1221.39001 291.03799,1214.93005 333.98099,1401.43005C376.047,1584.12 380.90799,1602.93005 387.65799,1609.09998C393.08099,1614.05005 400.246,1617.53003 397.255,1613.75C395.28101,1611.26001 392.854,1601.71997 383.07501,1558C377.60101,1533.53003 370.15302,1500.44995 366.526,1484.5C344.52802,1387.78003 316,1253.82996 316,1247.27002C316,1243.27002 322.556,1237.48999 329.54501,1235.33997C338.61801,1232.54004 1364.98999,1232.44995 1369.26001,1235.25C1376.87,1240.23999 1374.96997,1275.18994 1363.42004,1343C1362.08997,1350.81006 1364.13,1344.57996 1366.88,1332.43994C1368.48999,1325.31995 1373.47998,1303.33997 1377.95996,1283.59998C1390.75,1227.30005 1390.72998,1222.87 1377.57996,1216.90002C1373.19995,1214.91003 316.358,1214.01001 309.79099,1215.98999M1046.5,1266.06995C734.76599,1267.45996 405.15399,1270.44995 403.71399,1271.89001C398.436,1277.16003 400.60001,1277.45996 449,1278.10999C563.745,1279.65002 1283.79004,1279.06006 1285.43005,1277.43005C1287.56995,1275.29004 1287.41003,1270.71997 1285.08997,1267.85999C1282.76001,1264.97998 1285.64001,1265.01001 1046.5,1266.06995M320.45001,1427.35999C280.60101,1463.59998 222.35001,1535.68005 228.19099,1541.52002C228.98199,1542.31006 354,1540.62 354,1539.81995C354,1538.31995 341.78799,1488.55005 341.10901,1487.28003C340.24301,1485.67004 302.62701,1506.40002 282.444,1519.63C279.72101,1521.41003 279.70999,1521.41003 280.841,1519.30005C283.22198,1514.84998 307.508,1494.09998 327.521,1479.41003C337.15601,1472.33997 337.922,1471.54004 337.30701,1469.12C336.94101,1467.68005 334.33701,1456.46997 331.51999,1444.21997C326.39999,1421.94995 326.39999,1421.94995 320.45001,1427.35999M1357.68005,1444.69995C1349.29004,1475.34998 1349.30005,1477.10999 1357.93005,1485.5C1377.66003,1504.66003 1385.63,1521.01001 1384.85999,1540.77002C1384.48999,1550.26001 1390.68005,1552.43005 1409.38,1549.33997C1416.70996,1548.13 1413.39001,1524.70996 1402.93994,1503.88C1391.94995,1481.96997 1359.18994,1439.15002 1357.68005,1444.69995M202.26199,1563.32996C192.412,1574.02002 190.271,1594.98999 198.17999,1603.32996C200.24699,1605.51001 200.936,1605.88 200.388,1604.5C191.127,1581.21997 205.739,1565.28003 239.45,1561.87C256.246,1560.18005 251.662,1559.16003 226.877,1559.06995C206.255,1559 206.255,1559 202.26199,1563.32996M1330.63,1584.13C1328.79004,1593.30005 1323.28003,1592.5 1378,1590.97998C1482.37,1588.08997 1487.31006,1584.55005 1390.5,1582.01001C1330.10999,1580.43994 1331.37,1580.39001 1330.63,1584.13M239.81599,1583.07996C224.131,1584.73999 204.85699,1590.55005 210,1592.06006C212.88,1592.91003 367,1593.28003 367,1592.43994C367,1585.10999 364.923,1583.29004 355.76401,1582.64001C343.03601,1581.73999 249.129,1582.08997 239.81599,1583.07996L482.67499,67.9875" stroke="none" fill="#000000" fill-rule="evenodd" id="svg_2" class=""/></g></svg>